# xmcd
#
# Track frame offsets:
#	150
#	11643
#	23137
#	38382
#	51128
#	65616
#	78348
#	89588
#	100780
#	112268
#	122455
#	139510
#	150255
#	163414
#	176010
#	192881
#	203451
#	216345
#	232232
#	242769
#	254000
#	268132
#	283559
#	297312
#	305354
#
# Disc length: 4259 seconds
#
# Revision: 0
# Processed by: cddbd v1.4PL0 Copyright (c) Steve Scherf et al.
# Submitted via: EasyCDDAExtractor 4.6.9.1
#
DISCID=6710a119
DTITLE=Artiste Varies - 50 Des Plus Grandes Chansons Country CD2
DYEAR=1900
DGENRE=
TTITLE0=Julie Daraiche - Jambalaya
TTITLE1=Ade Gagnon - La Belle Gaspesie
TTITLE2=Pierre St-Georges - C'est Dur D'etre Humble
TTITLE3=Chantal and Rejean Masse - L'hotel Et La Boisson Pour Oublier
TTITLE4=Miche - Un Amour Qui Ne Veux Pas Mourir
TTITLE5=Zorro - Ce Monde Cruel Et Sans Amour
TTITLE6=Paul Brunelle - Sur Ce Vieux Rocher Blanc
TTITLE7=Willie Lamothe - Je Chante A Cheval
TTITLE8=Claude Patry - Lache Pas La Patate
TTITLE9=Paul Brunelle - Par Une Nuit D'etoiles
TTITLE10=Levis Bouliane - J'ai Brule Tes Lettres D'amour
TTITLE11=Claude Patry - Colinda
TTITLE12=Paul Brunelle - Mon Enfant Je Te Pardonne
TTITLE13=Leo Benoit - Tu Sais Que Je T'aime
TTITLE14=Raymond Rouleau - J'aurais Voulu T'aimer
TTITLE15=Tear Drops - Quand Le Soleil Dit Bonjour Au Montagnes
TTITLE16=Roland Montreuil - Le Penitencier
TTITLE17=Roger Miron - A Qui Le Petit Coeur Apres 9 Heures
TTITLE18=Leo Benoit - Marchant Dans La Plaine
TTITLE19=Claude Valade - Si L'amour Est La Loi
TTITLE20=Monique and Etienne - C'est La Fete
TTITLE21=Pierre St-Georges - Achy Breaky Heart
TTITLE22=Willie Lamothe - Mille Apres Mille
TTITLE23=Johnny Farago - T'aurais Pas Du Mourir Si Jeune
TTITLE24=Germaine Riendeau - Aide-Moi A Passer La Nuit
EXTD=
EXTT0=
EXTT1=
EXTT2=
EXTT3=
EXTT4=
EXTT5=
EXTT6=
EXTT7=
EXTT8=
EXTT9=
EXTT10=
EXTT11=
EXTT12=
EXTT13=
EXTT14=
EXTT15=
EXTT16=
EXTT17=
EXTT18=
EXTT19=
EXTT20=
EXTT21=
EXTT22=
EXTT23=
EXTT24=
PLAYORDER=
